<svg id="Layer_1" data-name="Layer 1" xmlns="http://www.w3.org/2000/svg" viewBox="0 0 2045.83 612.17"><title>LearnJava logo</title><path d="M1238.45,760.67c-24.17,16.64-51.56,35.5-66.24,66.7-25.49,54.43,52.17,113.8,55.48,116.31a4.38,4.38,0,0,0,2.62.87,4.33,4.33,0,0,0,2.75-1,4.13,4.13,0,0,0,1-5.15c-.28-.53-28.15-53.53-27.12-91.55.37-13.24,19.3-28.27,39.35-44.17,18.36-14.57,39.17-31.08,51.34-50.39,26.73-42.51-3-84.32-3.28-84.73a4.32,4.32,0,0,0-5.22-1.41,4.18,4.18,0,0,0-2.47,4.71c.06.28,5.84,27.92-10.23,56.4C1269.85,739.05,1255.3,749.07,1238.45,760.67Z" transform="translate(-2.17 -665.81)"/><path d="M1340.28,779.42a4.15,4.15,0,0,0,1.17-5.38,4.34,4.34,0,0,0-5.28-1.9c-4.1,1.53-100.54,37.92-100.54,81.88,0,30.3,13.22,46.31,22.88,58,3.79,4.58,7.06,8.54,8.14,11.92,3,9.74-4.16,27.35-7.18,33.31a4.15,4.15,0,0,0,1,5,4.37,4.37,0,0,0,2.8,1,4.32,4.32,0,0,0,2.45-.76c1.66-1.12,40.52-28,33.55-60.43-2.59-12.31-8.78-21.31-14.24-29.25-8.45-12.31-14.55-21.19-5.29-37.61C1290.63,816.14,1339.78,779.78,1340.28,779.42Z" transform="translate(-2.17 -665.81)"/><path d="M2.17,978.82H81.32v228.66H208.79v65.07H2.17Z" transform="translate(-2.17 -665.81)"/><path d="M211.08,1159.58c0-74.11,58.9-118.4,120.56-118.4,72.71,0,109.52,48.81,109.52,109.36,0,13.56-2.3,27.11-3.22,32.54h-167v-50.62H383.18l-11,13.56c0-29.82-12-46.09-37.74-46.09-30.37,0-46.93,19-46.93,59.65,0,42.48,21.17,59.65,63.5,59.65,18.41,0,35-4.52,55.22-13.56l25.77,46.1c-27.61,17.17-63.5,26.21-92,26.21C267.22,1278,211.08,1234.59,211.08,1159.58Z" transform="translate(-2.17 -665.81)"/><path d="M443,1208.38c0-50.61,40.49-76.82,145.41-82.24-2.76-16.27-18.41-23.5-44.18-23.5-19.32,0-38.65,6.32-66.26,19L450.36,1071c35-19,70.86-29.83,109.52-29.83,65.34,0,107.68,31.63,107.68,105.75v125.62H603.13l-5.52-23.49h-1.84c-22.55,16.26-49.7,28.92-78.23,28.92C469.69,1278,443,1245.44,443,1208.38Zm145.41-7.23v-28.92c-56.14,1.81-69.95,14.46-69.95,29.83,0,10.39,8.29,16.27,24.85,16.27C561.72,1218.33,576,1210.19,588.41,1201.15Z" transform="translate(-2.17 -665.81)"/><path d="M696.08,1046.6H761l6,47.9h1.85c22.08-37,55.21-53.32,89.73-53.32,21.16,0,30.83,3.61,43.71,9l-15.64,65.07c-13.81-4.07-23.47-6.33-40-6.33-26.23,0-54.3,13.56-71.32,51.52v112.07H696.08Z" transform="translate(-2.17 -665.81)"/><path d="M907.75,1046.6h64.42l5.52,27.12h1.84c18.41-17.18,43.26-32.54,76.85-32.54,51.08,0,73.16,36.15,73.16,92.19v139.18H1050.4V1143.31c0-25.31-6.44-36.15-26.69-36.15-14.73,0-24.85,6.32-36.81,17.17v148.22H907.75Z" transform="translate(-2.17 -665.81)"/><path d="M1131.84,1229.62l44.64-48.35c17,19,35.89,29.83,54.3,29.83,25.76,0,40-9.95,40-47V1043.89H1157.15V978.82H1350v191.6c0,58.75-30.37,107.56-116.42,107.56C1200.41,1278,1159.91,1266.23,1131.84,1229.62Z" transform="translate(-2.17 -665.81)"/><path d="M1363.3,1208.38c0-50.61,40.49-76.82,145.41-82.24-2.76-16.27-18.41-23.5-44.18-23.5-19.32,0-38.65,6.32-66.26,19L1370.66,1071c35-19,70.86-29.83,109.52-29.83,65.34,0,107.67,31.63,107.67,105.75v125.62h-64.42l-5.52-23.49h-1.84c-22.55,16.26-49.7,28.92-78.23,28.92C1390,1278,1363.3,1245.44,1363.3,1208.38Zm145.41-7.23v-28.92c-56.14,1.81-70,14.46-70,29.83,0,10.39,8.29,16.27,24.85,16.27C1482,1218.33,1496.28,1210.19,1508.71,1201.15Z" transform="translate(-2.17 -665.81)"/><path d="M1579.57,1046.6h79.14l29.91,98.52c6.91,22.59,12.43,46.09,18.87,70.5h1.84c6.44-24.41,12-47.91,18.87-70.5l29.91-98.52h75.46l-80.06,226h-91.12Z" transform="translate(-2.17 -665.81)"/><path d="M1823.45,1208.38c0-50.61,40.49-76.82,145.41-82.24-2.76-16.27-18.41-23.5-44.18-23.5-19.33,0-38.65,6.32-66.26,19L1830.81,1071c35-19,70.86-29.83,109.52-29.83,65.34,0,107.67,31.63,107.67,105.75v125.62h-64.42l-5.52-23.49h-1.84c-22.55,16.26-49.7,28.92-78.23,28.92C1850.14,1278,1823.45,1245.44,1823.45,1208.38Zm145.41-7.23v-28.92c-56.14,1.81-69.95,14.46-69.95,29.83,0,10.39,8.29,16.27,24.85,16.27C1942.17,1218.33,1956.43,1210.19,1968.86,1201.15Z" transform="translate(-2.17 -665.81)"/></svg>